<svg xmlns="http://www.w3.org/2000/svg" viewBox="0 0 100 100" width="100" height="100">
<defs><radialGradient id="g" cx="35%" cy="28%" r="78%"><stop offset="0%" stop-color="#8fe0a0"/><stop offset="55%" stop-color="#2b9455"/><stop offset="100%" stop-color="#2b9455"/></radialGradient></defs>
<rect x="38" y="18" width="24" height="66" rx="12" fill="url(#g)" stroke="#155e33" stroke-width="4"/>
<path d="M38 46H26a10 10 0 0 0-10 10v8" fill="none" stroke="url(#g)" stroke-width="16" stroke-linecap="round"/>
<path d="M38 46H26a10 10 0 0 0-10 10v8" fill="none" stroke="#155e33" stroke-width="4" stroke-linecap="round"/>
<path d="M62 38h10a10 10 0 0 1 10 10v6" fill="none" stroke="url(#g)" stroke-width="16" stroke-linecap="round"/>
<path d="M62 38h10a10 10 0 0 1 10 10v6" fill="none" stroke="#155e33" stroke-width="4" stroke-linecap="round"/>
<rect x="30" y="84" width="40" height="10" rx="4" fill="#c98a4a" stroke="#7d4d1c" stroke-width="4"/>
<circle cx="50" cy="30" r="5" fill="#ff5c8a" stroke="#155e33" stroke-width="3"/>
</svg>
