<svg xmlns="http://www.w3.org/2000/svg" viewBox="0 0 100 100" width="100" height="100"><defs><radialGradient id="g" cx="35%" cy="28%" r="78%"><stop offset="0%" stop-color="#ffd9ae"/><stop offset="55%" stop-color="#e8a765"/><stop offset="100%" stop-color="#e8a765"/></radialGradient></defs><path d="M30 92 C18 82 14 68 16 52 L18 36a5 5 0 0 1 10 0l2 14 1-30a5 5 0 0 1 10 0l1 28 3-26a5 5 0 0 1 10 1l-1 27 5-19a5 5 0 0 1 9 3l-5 33c-2 14-8 22-19 25z" fill="url(#g)" stroke="#a86a2e" stroke-width="4" stroke-linejoin="round"/><path d="M74 14c6 4 9 10 9 16M84 8c8 6 12 15 12 24" fill="none" stroke="#ffc61a" stroke-width="4" stroke-linecap="round"/></svg>