<svg xmlns="http://www.w3.org/2000/svg" viewBox="0 0 100 100" width="100" height="100">
<defs><radialGradient id="g" cx="35%" cy="28%" r="78%"><stop offset="0%" stop-color="#9fe4ff"/><stop offset="55%" stop-color="#1c86d6"/><stop offset="100%" stop-color="#1c86d6"/></radialGradient></defs>
<path d="M6 62c10-26 26-34 40-24 10 7 8 18 2 20-5 2-9-2-8-7 8 2 6-8-2-9-12-2-22 10-28 30z" fill="url(#g)" stroke="#0b4e83" stroke-width="4" stroke-linejoin="round"/>
<path d="M6 76c10 6 18 6 26 2s16-6 24-2 16 4 26-2v16H6z" fill="#2b95e0" stroke="#0b4e83" stroke-width="4" stroke-linejoin="round"/>
<path d="M22 52c6-10 14-14 20-11" stroke="#fff" stroke-width="4" fill="none" opacity=".6" stroke-linecap="round"/>
</svg>
